<?xml version="1.0" standalone="no"?><!DOCTYPE svg PUBLIC "-//W3C//DTD SVG 1.1//EN" "http://www.w3.org/Graphics/SVG/1.1/DTD/svg11.dtd"><svg t="1684976694427" class="icon" viewBox="0 0 1024 1024" version="1.1" xmlns="http://www.w3.org/2000/svg" p-id="5707" xmlns:xlink="http://www.w3.org/1999/xlink" width="200" height="200"><path d="M513.12 65.312c-247.552 0-448.224 200.672-448.224 448.192s200.672 448.192 448.224 448.192 448.224-200.672 448.224-448.224S760.672 65.28 513.12 65.28z m0 837.344c-214.912 0-389.12-174.208-389.12-389.12s174.208-389.12 389.12-389.12 389.12 174.208 389.12 389.12-174.208 389.12-389.12 389.12zM168.544 513.536c0 190.304 154.272 344.608 344.608 344.608s344.608-154.272 344.608-344.608c0-190.304-154.272-344.608-344.608-344.608S168.544 323.2 168.544 513.536z" p-id="5708" fill="#e8989a"></path></svg>